<svg id="Icon_user" data-name="Icon/user" xmlns="http://www.w3.org/2000/svg" xmlns:xlink="http://www.w3.org/1999/xlink" width="24" height="24" viewBox="0 0 24 24">
  <defs>
    <linearGradient id="linear-gradient" x1="1.09" y1="1.138" x2="0.117" y2="0.172" gradientUnits="objectBoundingBox">
      <stop offset="0" stop-color="#f7363d"/>
      <stop offset="1" stop-color="#fc668c"/>
    </linearGradient>
  </defs>
  <rect id="Rectangle_23212" data-name="Rectangle 23212" width="24" height="24" fill="none"/>
  <g id="Group_219531" data-name="Group 219531" transform="translate(0.543 1.179)">
    <path id="Union_109" data-name="Union 109" d="M11.1,17.073a.458.458,0,0,1,0-.338,8.445,8.445,0,0,1,2.49-3.352A5.509,5.509,0,0,1,17,12.166a6.1,6.1,0,0,1,2.164.469,8.433,8.433,0,0,1,3.519,3.689c.07.144.147.279.2.411a.361.361,0,0,1,.035.155v.027a.373.373,0,0,1-.035.155,8.444,8.444,0,0,1-2.49,3.352A5.492,5.492,0,0,1,17,21.643C14.548,21.643,12.345,19.932,11.1,17.073Zm3.161-.147a2.748,2.748,0,0,0,2.751,2.75h.008a2.75,2.75,0,1,0-2.759-2.75ZM1.5,19.9a1.5,1.5,0,1,1,0-3h7.72a9.944,9.944,0,0,0,1.684,3Zm13.9-2.983a1.542,1.542,0,0,1,.035-.326,1.337,1.337,0,0,0,1.3-1.249v-.035a2.195,2.195,0,0,1,.225-.023h.008A1.621,1.621,0,0,1,18.59,16.9v.008a1.364,1.364,0,0,1-.065.435.064.064,0,0,1-.012.054.452.452,0,0,0-.023.058,1.413,1.413,0,0,1-.38.594c-.066.066-.155.132-.233.2a1.656,1.656,0,0,1-.892.268A1.594,1.594,0,0,1,15.4,16.922ZM1.835,13.5V9.64a1.5,1.5,0,1,1,3,0V13.5a1.5,1.5,0,1,1-3,0ZM9.1,14.943a1.48,1.48,0,0,1-1.479-1.451V9.632a1.5,1.5,0,0,1,3,0v3.387c0,.466.187,1.924-1.513,1.924ZM13.4,9.632a1.5,1.5,0,0,1,3,0V10.8a5.461,5.461,0,0,0-3,1.137ZM1.261,6.5H1.253A1.2,1.2,0,0,1,.7,4.236L8.321.225a1.906,1.906,0,0,1,1.8,0l7.614,4.011A1.2,1.2,0,0,1,17.186,6.5Z" stroke="rgba(0,0,0,0)" stroke-width="1" fill="url(#linear-gradient)"/>
  </g>
</svg>
