<svg id="Icon_user" data-name="Icon/user" xmlns="http://www.w3.org/2000/svg" xmlns:xlink="http://www.w3.org/1999/xlink" width="24" height="24" viewBox="0 0 24 24">
  <defs>
    <linearGradient id="linear-gradient" x1="-0.094" y1="-0.227" x2="1" y2="1" gradientUnits="objectBoundingBox">
      <stop offset="0" stop-color="#a88efc"/>
      <stop offset="1" stop-color="#53a3fd"/>
    </linearGradient>
  </defs>
  <rect id="Rectangle_23212" data-name="Rectangle 23212" width="24" height="24" fill="none"/>
  <g id="Group_218811" data-name="Group 218811" transform="translate(1.999 4.001)">
    <path id="Union_185" data-name="Union 185" d="M3.98,16.329A1.231,1.231,0,0,1,2.746,15.1v-.588H17.141a1.309,1.309,0,0,0,1.3-1.3V6.767H20V15.1a1.231,1.231,0,0,1-1.234,1.229ZM1.234,13.416A1.233,1.233,0,0,1,0,12.187V3.854H17.258v8.333a1.233,1.233,0,0,1-1.234,1.229ZM18.445,5.479V2.913h.32A1.232,1.232,0,0,1,20,4.148V5.479ZM0,2.566V1.229A1.233,1.233,0,0,1,1.234,0H16.023a1.233,1.233,0,0,1,1.234,1.229V2.566Z" stroke="rgba(0,0,0,0)" stroke-width="1" fill="url(#linear-gradient)"/>
  </g>
</svg>
