<svg xmlns="http://www.w3.org/2000/svg" xmlns:xlink="http://www.w3.org/1999/xlink" width="24" height="24" viewBox="0 0 24 24">
  <defs>
    <linearGradient id="linear-gradient" x1="0.713" y1="0.741" x2="0" gradientUnits="objectBoundingBox">
      <stop offset="0" stop-color="#1d82f8"/>
      <stop offset="1" stop-color="#45dcff"/>
    </linearGradient>
  </defs>
  <g id="Group_219029" data-name="Group 219029" transform="translate(-692 -1511)">
    <g id="ic_Debit_card_Spendz_card" data-name="ic_Debit card/Spendz card" transform="translate(692 -1006.001)">
      <rect id="Rectangle_24136" data-name="Rectangle 24136" width="24" height="24" transform="translate(0 2517.001)" fill="none"/>
      <g id="Group_149417" data-name="Group 149417" transform="translate(-386 2501.224)">
        <path id="Union_71" data-name="Union 71" d="M-3606.5,787.333a1.5,1.5,0,0,1-1.5-1.5v-9.582h20v9.582a1.5,1.5,0,0,1-1.5,1.5Zm9.859-7.983a2.21,2.21,0,0,0-.838.968,3.461,3.461,0,0,0-.291,1.463v.282a3.028,3.028,0,0,0,.644,2.062,2.244,2.244,0,0,0,1.766.731,2.807,2.807,0,0,0,1.209-.25,1.949,1.949,0,0,0,.823-.705,2.1,2.1,0,0,0,.32-1.049h-1.363a.953.953,0,0,1-.266.707,1.059,1.059,0,0,1-.723.223.84.84,0,0,1-.787-.391,2.737,2.737,0,0,1-.228-1.3v-.4a2.46,2.46,0,0,1,.25-1.222.82.82,0,0,1,.75-.383,1.078,1.078,0,0,1,.75.227,1.015,1.015,0,0,1,.262.746H-3593a2.162,2.162,0,0,0-.714-1.5,2.461,2.461,0,0,0-1.664-.545A2.345,2.345,0,0,0-3596.641,779.35Zm-6.14,5.427h1.871a2.652,2.652,0,0,0,1.338-.354,2.434,2.434,0,0,0,.929-.969,2.941,2.941,0,0,0,.331-1.4v-.262a2.915,2.915,0,0,0-.342-1.4,2.4,2.4,0,0,0-.939-.965,2.7,2.7,0,0,0-1.355-.341h-1.832Zm1.371-1.055v-3.574h.461a1.091,1.091,0,0,1,.922.417,2.054,2.054,0,0,1,.317,1.242v.246a2.07,2.07,0,0,1-.317,1.248,1.074,1.074,0,0,1-.906.42Zm-6.59-8.973v-1.472a1.5,1.5,0,0,1,1.5-1.5h17a1.5,1.5,0,0,1,1.5,1.5v1.472Z" transform="translate(3996 -751.777)" fill="url(#linear-gradient)"/>
      </g>
    </g>
  </g>
</svg>
