<?xml version="1.0" encoding="utf-8"?>
<!-- Generator: Adobe Illustrator 16.0.0, SVG Export Plug-In . SVG Version: 6.00 Build 0)  -->
<!DOCTYPE svg PUBLIC "-//W3C//DTD SVG 1.1//EN" "http://www.w3.org/Graphics/SVG/1.1/DTD/svg11.dtd">
<svg version="1.1" id="Layer_3" xmlns="http://www.w3.org/2000/svg" xmlns:xlink="http://www.w3.org/1999/xlink" x="0px" y="0px"
	 width="360px" height="360px" viewBox="0 0 360 360" enable-background="new 0 0 360 360" xml:space="preserve">
<g>
	<path fill="#666666" d="M150.336,360h-42.321c-7.417,0-13.525-5.672-14.398-13.089c0-0.437,0-0.437,0-0.872v-0.435v-3.055
		c-0.437-6.11-2.182-20.943-13.962-32.723c-8.291-8.726-15.708-19.634-21.815-32.722c-3.925-7.418-6.543-14.833-8.726-22.688v-0.437
		v-0.438c-1.746-7.852-2.618-15.706-2.618-23.559c0-5.672,0.437-11.344,1.31-17.017c0.872-3.925,4.361-6.979,8.726-6.105
		c3.926,0.871,6.979,4.362,6.107,8.724c-0.874,4.8-1.309,9.599-1.309,14.398c0,6.981,0.872,13.525,2.617,20.506l0,0l0,0
		c1.746,6.545,3.927,13.526,7.417,19.633c0,0,0,0,0,0.436c5.672,11.781,11.78,21.379,19.197,28.797
		c15.27,15.707,17.451,35.339,17.888,42.757v0.437v2.618h41.011v-10.035c0-2.182,0.873-4.363,2.618-5.673
		c1.745-1.308,3.928-2.181,6.108-1.744c10.471,1.308,20.942,1.744,31.851,0.437c2.181-0.437,4.361,0.435,5.671,1.745
		c1.745,1.307,2.618,3.488,2.618,5.671v9.162h41.011v-10.035l0,0c0-4.798,1.745-20.942,16.58-34.467l0,0
		c0.436-0.437,0.873-0.873,1.745-1.31l0,0l0,0c13.524-12.216,23.56-27.486,28.796-43.628c0.872-3.055,3.927-5.236,6.981-5.236h8.726
		c3.054,0,5.236-2.183,5.236-5.234v-31.415c0-3.055-2.183-5.235-5.236-5.235h-9.163c-3.489,0-6.107-2.183-7.416-5.236
		c-5.673-17.451-16.581-33.158-32.286-45.374c-1.746-1.309-2.617-3.49-2.617-5.673c-3.491-11.78-1.311-24.432,6.543-36.648
		c0,0,0,0,0-0.437c-19.196,2.182-28.795,11.781-34.031,19.198c-1.744,2.618-5.235,3.926-8.289,3.054
		c-7.417-2.618-15.707-3.927-23.56-5.236c-3.927-0.435-6.981-4.361-6.545-8.289c0.437-3.927,4.361-6.981,8.289-6.545
		c6.98,0.873,14.397,2.182,20.943,3.927c7.417-8.726,20.069-18.323,41.011-20.941c5.672-0.874,11.343,1.744,14.833,6.98
		c3.056,4.799,3.056,11.344,0,16.143c-5.234,8.727-6.98,17.017-4.798,24.433c14.834,12.653,26.177,28.36,32.721,45.375h3.927
		c11.346,0,20.071,9.163,20.071,20.069v31.413c0,11.344-9.164,20.069-20.071,20.069h-3.488
		c-6.107,17.016-16.578,32.286-30.978,44.938l-0.436,0.437l0,0c-0.436,0.438-1.309,0.874-1.744,1.309
		c-10.908,9.6-11.781,20.942-11.781,23.56v10.473c0,7.853-6.544,14.396-14.398,14.396h-42.321c-7.853,0-14.396-6.544-14.396-14.396
		v-1.745c-6.108,0.434-12.217,0-18.325-0.437v2.182C164.732,353.455,158.188,360,150.336,360z M107.141,72.918
		c37.958,0,68.936,30.977,68.936,68.935s-30.978,68.935-68.936,68.935c-37.957,0-68.935-30.977-68.935-68.935
		C37.77,103.895,68.748,72.918,107.141,72.918z M107.141,87.753c-29.667,0-54.101,24.432-54.101,54.1s24.434,54.101,54.101,54.101
		c29.668,0,54.101-24.433,54.101-54.101S136.81,87.753,107.141,87.753z"/>
	<path fill="#EF4123" stroke="#666666" stroke-width="3.978" stroke-miterlimit="10" d="M167.251,141.853
		c0,32.964-27.147,60.109-60.11,60.109c-32.962,0-60.111-27.146-60.111-60.109c0-32.963,27.148-60.109,60.111-60.109
		C140.105,81.743,167.251,108.89,167.251,141.853z"/>
	<g>
		<path fill="#666666" stroke="#666666" stroke-width="2.3321" stroke-miterlimit="10" d="M143.544,44.901
			c0,24.724,20.177,44.9,44.9,44.9s44.901-20.177,44.901-44.9S213.168,0,188.444,0C163.437,0,143.259,20.178,143.544,44.901z"/>
		<path fill="#EF4123" d="M223.684,44.901c0,19.324-15.914,35.238-35.239,35.238c-19.324,0-35.239-15.914-35.239-35.238
			S169.12,9.663,188.444,9.663C207.77,9.663,223.684,25.577,223.684,44.901z"/>
	</g>
</g>
</svg>
