<?xml version="1.0" encoding="utf-8"?>
<!-- Generator: Adobe Illustrator 16.0.0, SVG Export Plug-In . SVG Version: 6.00 Build 0)  -->
<!DOCTYPE svg PUBLIC "-//W3C//DTD SVG 1.1//EN" "http://www.w3.org/Graphics/SVG/1.1/DTD/svg11.dtd">
<svg version="1.1" id="Layer_3" xmlns="http://www.w3.org/2000/svg" xmlns:xlink="http://www.w3.org/1999/xlink" x="0px" y="0px"
	 width="360px" height="360px" viewBox="0 0 360 360" enable-background="new 0 0 360 360" xml:space="preserve">
<g>
	<g>
		<g>
			<path fill="#666666" d="M323.515,195.007h-7.504v-35.315l27.971-36.502l-64.688-49.564l4.197-10.162l-37.902-15.672
				l-32.574-24.96l-4.318,5.641l0.923-7.042L168.932,16.1L131.018,0.423l-4.201,10.162L46.012,0L32.141,105.924
				c-9.321,2.747-16.122,11.365-16.122,21.578v217.49c0,8.284,6.713,15.008,14.996,15.008h270c8.283,0,14.996-6.724,14.996-15.008
				v-45h7.504c4.143,0,7.504-3.352,7.504-7.492v-90C331.019,198.357,327.657,195.007,323.515,195.007z M215.794,43.863
				l107.16,82.112l-10.755,14.035c-2.747-3.076-6.735-5.01-11.185-5.01h-9.744c-2.505-6.959-1.517-15.013,3.317-21.319
				l-59.546-45.621c-4.416,5.785-11.107,8.816-17.863,8.816c-4.779,0-9.592-1.51-13.668-4.642L155.413,135h-9.454L215.794,43.863z
				 M275.263,132.287c0.121,0.912,0.275,1.818,0.461,2.713H174.31l33.871-44.204c2.912,0.714,5.922,1.082,8.998,1.082
				c5.625,0,11.271-1.291,16.326-3.73c0.614-0.302,1.241-0.621,1.845-0.956l40.672,31.163
				C274.9,122.849,274.637,127.557,275.263,132.287z M127.063,135h-11.107l27.987-67.687c9.674-0.187,18.645-4.043,25.324-10.498
				l13.447,5.559L127.063,135z M139.147,20.018l57.729,23.867l-4.725,6.164l-28.146-11.64c-3.582,8.674-11.965,13.909-20.803,13.909
				c-2.862,0-5.773-0.549-8.586-1.709L99.724,135H91.61L139.147,20.018z M75.378,135h-9.229l9.656-73.734
				c5.208-1.511,10.075-4.143,14.233-7.762c2.972-2.593,5.492-5.609,7.492-8.938l14.453,1.895L75.378,135z M58.938,16.82
				l61.947,8.113l-2.967,7.174l-30.207-3.955C86.228,39.484,76.554,47.736,65.43,47.736c-0.978,0-1.961-0.066-2.949-0.192
				L51.021,135h-7.564L58.938,16.82z M301.016,344.992L301.016,344.992h-270v-194.99h270v45.005h-75.004
				c0,0-30.015,35.926-30.015,52.493s30.015,52.492,30.015,52.492h75.004V344.992z M316.012,285.007H233.24
				c-2.658-3.428-6.206-8.151-9.733-13.358c-11.777-17.314-12.47-23.72-12.502-24.148c0.032-0.428,0.725-6.834,12.502-24.148
				c3.527-5.207,7.075-9.932,9.733-13.359h82.771V285.007z"/>
		</g>
	</g>
	<ellipse fill="#EF4123" cx="256.015" cy="247.5" rx="22.148" ry="22.5"/>
</g>
</svg>
