<svg id="Loans" xmlns="http://www.w3.org/2000/svg" xmlns:xlink="http://www.w3.org/1999/xlink" width="24" height="24" viewBox="0 0 24 24">
  <defs>
    <linearGradient id="linear-gradient" x1="1" y1="1.318" x2="0.055" gradientUnits="objectBoundingBox">
      <stop offset="0" stop-color="#11787e"/>
      <stop offset="1" stop-color="#28da61"/>
    </linearGradient>
  </defs>
  <rect id="Rectangle_33912" data-name="Rectangle 33912" width="24" height="24" fill="none"/>
  <g id="Group_219574" data-name="Group 219574" transform="translate(3.23 1.312)">
    <path id="Union_117" data-name="Union 117" d="M5.009,21.375a4.063,4.063,0,0,1-1.819-.431,3.647,3.647,0,0,0-1.638-.388H.613A.614.614,0,0,1,0,19.943V15.865a.614.614,0,0,1,.613-.613h.935A3.769,3.769,0,0,0,3.2,14.86,4.11,4.11,0,0,1,5,14.434h4.78a1.444,1.444,0,0,1,1.439,1.339v.085A1.429,1.429,0,0,1,9.8,17.289H8.485l1.319.629a2.251,2.251,0,0,0,2.266-.2l3.162-2.266a1.449,1.449,0,0,1,1.3-.19l0-.012a1.449,1.449,0,0,1,1,1.358v.043a1.427,1.427,0,0,1-.566,1.133l-3.088,2.371a5.892,5.892,0,0,1-3.573,1.218Zm3.76-8.637A6.369,6.369,0,1,1,15.14,6.371a6.365,6.365,0,0,1-6.371,6.367ZM6.181,6.386A.583.583,0,0,0,6.22,7l2.234,3.135A.582.582,0,1,0,9.4,9.459L7.822,7.24A2.363,2.363,0,0,0,9.987,5.479h.83a.583.583,0,1,0,.055-1.164H9.987a2.463,2.463,0,0,0-.245-.605h1.079a.582.582,0,1,0,0-1.164H6.693a.582.582,0,1,0,0,1.164H7.71a1.175,1.175,0,0,1,1.027.605H6.693a.583.583,0,0,0,0,1.164H8.737a1.185,1.185,0,0,1-1.027.6H6.689A.572.572,0,0,0,6.181,6.386Z" stroke="rgba(0,0,0,0)" stroke-width="1" fill="url(#linear-gradient)"/>
  </g>
</svg>
