<svg id="ic_Kotak_offers" data-name="ic_Kotak offers" xmlns="http://www.w3.org/2000/svg" xmlns:xlink="http://www.w3.org/1999/xlink" width="24" height="24" viewBox="0 0 24 24">
  <defs>
    <linearGradient id="linear-gradient" x1="-0.337" y1="-0.335" x2="0.914" y2="0.971" gradientUnits="objectBoundingBox">
      <stop offset="0" stop-color="#ff50e2"/>
      <stop offset="1" stop-color="#ff7b3c"/>
    </linearGradient>
  </defs>
  <rect id="Rectangle_24139" data-name="Rectangle 24139" width="24" height="24" fill="none"/>
  <path id="Subtraction_72" data-name="Subtraction 72" d="M10,20a3,3,0,0,1-2.124-.875l-.73-.73a1.5,1.5,0,0,0-1.063-.438H5.055a3.015,3.015,0,0,1-3.011-3.011V13.917a1.51,1.51,0,0,0-.44-1.065l-.719-.718A3.015,3.015,0,0,1,.874,7.877l.73-.731a1.5,1.5,0,0,0,.44-1.063V5.056A3.015,3.015,0,0,1,5.055,2.043H6.083A1.5,1.5,0,0,0,7.147,1.6L7.866.886A3.013,3.013,0,0,1,12.123.875l.73.73a1.5,1.5,0,0,0,1.063.438h1.027a3.015,3.015,0,0,1,3.011,3.013V6.083A1.5,1.5,0,0,0,18.4,7.148l.718.718a3.011,3.011,0,0,1,.02,4.248l-.007.008-.006.005-.016.016-.71.711a1.5,1.5,0,0,0-.44,1.064v1.027a3.015,3.015,0,0,1-3.011,3.011H13.916a1.5,1.5,0,0,0-1.065.44l-.719.718A2.983,2.983,0,0,1,10,20ZM12.931,6.075a.99.99,0,0,0-.7.291L6.371,12.222A1,1,0,0,0,7.78,13.633l5.855-5.857a1,1,0,0,0,0-1.41A.99.99,0,0,0,12.931,6.075Zm.176,4.42a1.641,1.641,0,1,0,1.641,1.641A1.642,1.642,0,0,0,13.107,10.5ZM6.894,6.221A1.641,1.641,0,1,0,8.534,7.862,1.643,1.643,0,0,0,6.894,6.221Z" transform="translate(2 2)" fill="url(#linear-gradient)"/>
</svg>
