<?xml version="1.0" encoding="utf-8"?>
<!-- Generator: Adobe Illustrator 16.0.0, SVG Export Plug-In . SVG Version: 6.00 Build 0)  -->
<!DOCTYPE svg PUBLIC "-//W3C//DTD SVG 1.1//EN" "http://www.w3.org/Graphics/SVG/1.1/DTD/svg11.dtd">
<svg version="1.1" id="Layer_1" xmlns="http://www.w3.org/2000/svg" xmlns:xlink="http://www.w3.org/1999/xlink" x="0px" y="0px"
	 width="72px" height="72px" viewBox="0 0 72 72" enable-background="new 0 0 72 72" xml:space="preserve">
<g>
	<path fill="#EF4123" stroke="#FFFFFF" stroke-width="0.7" stroke-miterlimit="10" d="M40.206,44.346
		c6.806,0,12.341-5.537,12.341-12.343c0-6.805-5.535-12.342-12.341-12.342c-6.806,0-12.343,5.537-12.343,12.342
		C27.863,38.809,33.4,44.346,40.206,44.346z M40.206,21.905c5.567,0,10.097,4.53,10.097,10.099c0,5.566-4.527,10.098-10.097,10.098
		c-5.569,0-10.098-4.529-10.098-10.098C30.108,26.435,34.638,21.905,40.206,21.905z"/>
	<path fill="#666666" stroke="#FFFFFF" stroke-width="0.9" stroke-miterlimit="10" d="M13.008,26.016
		c7.172,0,13.007-5.836,13.007-13.008C26.016,5.835,20.18,0,13.008,0C5.835,0,0,5.835,0,13.008C0,20.18,5.835,26.016,13.008,26.016z
		 M13.008,2.365c5.869,0,10.642,4.775,10.642,10.644c0,5.867-4.772,10.641-10.642,10.641c-5.868,0-10.643-4.773-10.643-10.641
		C2.366,7.14,7.14,2.365,13.008,2.365z"/>
	<path fill="#666666" stroke="#FFFFFF" stroke-width="0.6" stroke-miterlimit="10" d="M61.4,21.202c5.845,0,10.6-4.756,10.6-10.602
		C72,4.755,67.245,0,61.4,0c-5.846,0-10.603,4.755-10.603,10.601C50.799,16.446,55.555,21.202,61.4,21.202z M61.4,1.928
		c4.783,0,8.672,3.891,8.672,8.674c0,4.781-3.889,8.672-8.672,8.672c-4.782,0-8.674-3.89-8.674-8.672
		C52.727,5.819,56.618,1.928,61.4,1.928z"/>
	<rect x="9.869" y="61.711" fill="#666666" width="2.244" height="2.244"/>
	<path fill="#666666" stroke="#FFFFFF" stroke-width="0.5" stroke-miterlimit="10" d="M71.182,49.066l-0.037-0.051
		c-0.653-0.863-1.598-1.447-2.662-1.645c-1.062-0.197-2.151,0.008-3.07,0.579l-9.77,6.082C55.477,51.84,53.66,50.1,51.428,50.1
		H35.344l-5.448-3.486c-1.405-0.899-2.928-1.594-4.526-2.061c-1.599-0.469-3.255-0.705-4.924-0.705H16.6v-5.646H0V69.6h16.6v-5.646
		h3.546l18.655,7.479C39.811,71.812,40.852,72,41.913,72c0.312,0,0.623-0.018,0.937-0.049c1.383-0.145,2.68-0.596,3.867-1.348
		l23.508-15.402l0.041-0.029c0.95-0.686,1.566-1.701,1.74-2.859S71.889,50.001,71.182,49.066z M14.357,67.357H2.244v-26.91h12.113
		V67.357z M69.787,51.979c-0.081,0.549-0.372,1.031-0.816,1.361L45.503,68.719c-0.88,0.555-1.851,0.893-2.886,1
		c-1.036,0.106-2.055-0.021-3.006-0.377L20.58,61.711H16.6V46.093h3.845c1.455,0,2.899,0.206,4.293,0.614s2.722,1.014,3.948,1.796
		l6.001,3.841h16.74c1.104,0,2.003,0.899,2.003,2.006c0,1.105-0.897,2.004-2.003,2.004H35.015c-2.342,0-4.248,1.904-4.248,4.246
		h2.244c0-1.104,0.9-2.004,2.004-2.004h16.413c1.014,0,1.932-0.371,2.662-0.966l0.006,0.011l12.5-7.783
		c0.443-0.273,0.967-0.373,1.479-0.278s0.967,0.376,1.279,0.789l0.037,0.05C69.73,50.868,69.87,51.422,69.787,51.979z"/>
</g>
<g>
	<path fill="#EF4123" d="M39.91,32.116h-2.657l4.455,4.715l0.495-0.521l-3.336-3.49h1.066c1.068-0.026,1.955-0.86,2.111-1.954h1.512
		v-0.703h-1.512c-0.078-0.469-0.262-0.913-0.572-1.251h2.084v-0.703h-5.992v0.703h2.346c0.703,0,1.302,0.521,1.457,1.251h-3.803
		v0.703h3.803C41.212,31.569,40.613,32.116,39.91,32.116z"/>
</g>
<g>
	<path fill="#666666" d="M12.594,13.472H10.37l3.729,3.946l0.414-0.436l-2.792-2.921h0.893c0.894-0.022,1.636-0.72,1.767-1.636
		h1.264v-0.588h-1.264c-0.065-0.393-0.219-0.764-0.48-1.047h1.744v-0.588H10.63v0.588h1.963c0.588,0,1.089,0.436,1.22,1.047H10.63
		v0.588h3.183C13.683,13.014,13.182,13.472,12.594,13.472z"/>
</g>
<g>
	<path fill="#666666" d="M60.986,11.26h-2.225l3.729,3.946l0.414-0.436l-2.791-2.921h0.894c0.894-0.022,1.636-0.72,1.767-1.636
		h1.266V9.625h-1.266c-0.064-0.393-0.219-0.764-0.479-1.047h1.744V7.989h-5.016v0.588h1.963c0.589,0,1.09,0.436,1.22,1.047h-3.183
		v0.588h3.183C62.075,10.802,61.574,11.26,60.986,11.26z"/>
</g>
</svg>
