<svg id="ic_Two_wheeler_insurance" data-name="ic_Two wheeler insurance" xmlns="http://www.w3.org/2000/svg" xmlns:xlink="http://www.w3.org/1999/xlink" width="24" height="24" viewBox="0 0 24 24">
  <defs>
    <linearGradient id="linear-gradient" x1="-0.062" y1="-0.061" x2="1.847" y2="1.847" gradientUnits="objectBoundingBox">
      <stop offset="0" stop-color="#ffe666"/>
      <stop offset="1" stop-color="#fc8719"/>
    </linearGradient>
    <linearGradient id="linear-gradient-2" x1="-0.246" y1="-0.577" x2="1.054" y2="1.275" xlink:href="#linear-gradient"/>
    <linearGradient id="linear-gradient-3" x1="-1.111" y1="-1.025" x2="0.749" y2="0.737" xlink:href="#linear-gradient"/>
  </defs>
  <rect id="Rectangle_24136" data-name="Rectangle 24136" width="24" height="24" fill="none"/>
  <g id="Group_219962" data-name="Group 219962">
    <rect id="Rectangle_23212" data-name="Rectangle 23212" width="24" height="24" fill="none"/>
    <g id="Group_219980" data-name="Group 219980" transform="translate(2 1.306)">
      <path id="Path_218916" data-name="Path 218916" d="M342.161,359.214a2.112,2.112,0,1,1,2.113-2.112A2.113,2.113,0,0,1,342.161,359.214Z" transform="translate(-325.387 -340.712)" fill="#fff" stroke="#fff" stroke-width="1.5"/>
      <g id="Group_219979" data-name="Group 219979">
        <path id="Path_218096" data-name="Path 218096" d="M328.588,345.193a4.483,4.483,0,1,1,0,.005Z" transform="translate(-325.387 -340.712)" fill="url(#linear-gradient)"/>
        <path id="Path_218917" data-name="Path 218917" d="M335.02,360.192a1.842,1.842,0,0,1-.007-1.913,2,2,0,0,1,.737-.715l.093-.092a.242.242,0,0,0,.032-.119.273.273,0,0,0-.1-.217l-.076-.04a1.9,1.9,0,0,1-.765-2.387v-.022l.483-.842a2,2,0,0,1,2.664-.7.334.334,0,0,0,.424-.127,2,2,0,0,1,.175-.815,4.615,4.615,0,0,0-2.477-.73H330a4.57,4.57,0,0,0-4.615,4.512v3.044a1.7,1.7,0,0,0,1.725,1.679h8.214Z" transform="translate(-325.387 -340.712)" fill="url(#linear-gradient-2)"/>
        <path id="Path_218918" data-name="Path 218918" d="M345.255,358.394a1.146,1.146,0,0,0-.4-.384.744.744,0,0,1-.311-.31.877.877,0,0,1,.315-1.2l.009-.006h0a.979.979,0,0,0,.393-1.336l-.022-.037-.331-.574a1.042,1.042,0,0,0-.891-.505,1.053,1.053,0,0,0-.515.135.992.992,0,0,1-.441.11.971.971,0,0,1-.817-.444.753.753,0,0,1-.111-.428.87.87,0,0,0-.135-.515,1.054,1.054,0,0,0-.891-.505H340.4a1.078,1.078,0,0,0-.883.505.857.857,0,0,0-.141.515.735.735,0,0,1-.111.428.96.96,0,0,1-1.253.334,1.051,1.051,0,0,0-1.414.369l-.331.574v0a.986.986,0,0,0,.347,1.359l.018.01h0a.889.889,0,0,1,.324,1.214.783.783,0,0,1-.315.31,1.06,1.06,0,0,0-.405.384.957.957,0,0,0,.01,1l.347.583a1.051,1.051,0,0,0,.891.5,1.082,1.082,0,0,0,.532-.146.764.764,0,0,1,.4-.109h.036a.921.921,0,0,1,.921.883,1.013,1.013,0,0,0,1.013,1h.736a1.011,1.011,0,0,0,.984-.983V361.1a.932.932,0,0,1,.928-.883h.03a.811.811,0,0,1,.411.11,1.035,1.035,0,0,0,1.411-.348l.007-.01.351-.583A.977.977,0,0,0,345.255,358.394Zm-4.511.467a1.615,1.615,0,1,1,1.63-1.615A1.623,1.623,0,0,1,340.744,358.861Z" transform="translate(-325.387 -340.712)" fill="url(#linear-gradient-3)"/>
      </g>
    </g>
  </g>
</svg>
